HIERARCHY
ROOT root
{
	OFFSET 0.000000 0.000000 0.000000
	CHANNELS 6 Xposition Yposition Zposition Zrotation Yrotation Xrotation
	JOINT lhip
	{
		OFFSET 0.058581 -0.082280 -0.017664
		CHANNELS 3 Zrotation Yrotation Xrotation
		JOINT lknee
		{
			OFFSET 0.043451 -0.386469 0.008037
			CHANNELS 3 Zrotation Yrotation Xrotation
			JOINT lankle
			{
				OFFSET -0.014790 -0.426874 -0.037428
				CHANNELS 3 Zrotation Yrotation Xrotation
				JOINT ltoe
				{
					OFFSET 0.041054 -0.060286 0.122042
					CHANNELS 3 Zrotation Yrotation Xrotation
					End Site
					{
						OFFSET 0.000000 0.000000 0.000000
					}
				}
			}
		}
	}
	JOINT rhip
	{
		OFFSET -0.060310 -0.090513 -0.013543
		CHANNELS 3 Zrotation Yrotation Xrotation
		JOINT rknee
		{
			OFFSET -0.043257 -0.383688 -0.004843
			CHANNELS 3 Zrotation Yrotation Xrotation
			JOINT rankle
			{
				OFFSET 0.019056 -0.420046 -0.034562
				CHANNELS 3 Zrotation Yrotation Xrotation
				JOINT rtoe
				{
					OFFSET -0.034840 -0.062106 0.130323
					CHANNELS 3 Zrotation Yrotation Xrotation
					End Site
					{
						OFFSET 0.000000 0.000000 0.000000
					}
				}
			}
		}
	}
	JOINT lowerback
	{
		OFFSET 0.004439 0.124404 -0.038385
		CHANNELS 3 Zrotation Yrotation Xrotation
		JOINT upperback
		{
			OFFSET 0.004488 0.137956 0.026820
			CHANNELS 3 Zrotation Yrotation Xrotation
			JOINT chest
			{
				OFFSET -0.002265 0.056032 0.002855
				CHANNELS 3 Zrotation Yrotation Xrotation
				JOINT lowerneck
				{
					OFFSET -0.013390 0.211636 -0.033468
					CHANNELS 3 Zrotation Yrotation Xrotation
					JOINT upperneck
					{
						OFFSET 0.010113 0.088937 0.050410
						CHANNELS 3 Zrotation Yrotation Xrotation
						End Site
						{
							OFFSET 0.000000 0.000000 0.000000
						}
					}
				}
				JOINT lclavicle
				{
					OFFSET 0.071702 0.114000 -0.018898
					CHANNELS 3 Zrotation Yrotation Xrotation
					JOINT lshoulder
					{
						OFFSET 0.122921 0.045205 -0.019046
						CHANNELS 3 Zrotation Yrotation Xrotation
						JOINT lelbow
						{
							OFFSET 0.255332 -0.015649 -0.022946
							CHANNELS 3 Zrotation Yrotation Xrotation
							JOINT lwrist
							{
								OFFSET 0.265709 0.012698 -0.007375
								CHANNELS 3 Zrotation Yrotation Xrotation
								End Site
								{
									OFFSET 0.000000 0.000000 0.000000
								}
							}
						}
					}
				}
				JOINT rclavicle
				{
					OFFSET -0.082954 0.112472 -0.023707
					CHANNELS 3 Zrotation Yrotation Xrotation
					JOINT rshoulder
					{
						OFFSET -0.113228 0.046853 -0.008472
						CHANNELS 3 Zrotation Yrotation Xrotation
						JOINT relbow
						{
							OFFSET -0.260127 -0.014369 -0.031269
							CHANNELS 3 Zrotation Yrotation Xrotation
							JOINT rwrist
							{
								OFFSET -0.269108 0.006794 -0.006027
								CHANNELS 3 Zrotation Yrotation Xrotation
								End Site
								{
									OFFSET 0.000000 0.000000 0.000000
								}
							}
						}
					}
				}
			}
		}
	}
}
MOTION
Frames: 14
Frame Time: 0.033333
0.203368 0.774287 0.885576 66.684739 3.714546 87.452899 3.554493 0.955419 8.406072 -11.892152 -5.964807 62.970051 -4.253234 8.850609 -17.009240 0.000000 -0.000000 0.000000 2.197538 9.812437 -46.001760 -3.712943 -12.597731 57.626201 -4.024918 -16.945424 -12.467517 0.000000 -0.000000 0.000000 -1.742089 -10.735051 40.873488 0.680661 -5.006189 6.641857 1.846887 -5.528781 3.258935 -6.952797 3.038504 5.632927 10.228466 12.263611 -15.257244 -15.273763 -24.274344 -1.098860 -28.265082 -24.460174 3.573243 47.486471 -61.257760 -71.333868 25.399599 4.649348 -34.528468 13.740548 14.101112 -0.227099 50.249662 -12.573403 20.343270 -10.068149 67.236431 3.071075 9.441690 0.638448 5.972638 
0.222217 0.762768 0.882676 65.519080 3.660871 85.913413 3.400910 -0.260393 1.598224 -11.981948 -1.335235 75.597541 -3.616216 8.479746 -15.648380 0.000000 -0.000000 0.000000 3.510540 10.177236 -43.577437 -4.193328 -12.087106 59.451105 -4.783385 -17.234351 -14.929941 0.000000 -0.000000 0.000000 -1.427029 -9.463370 42.868091 0.752375 -5.036447 6.555024 1.836231 -4.853980 3.212393 -8.297729 1.804177 7.260731 10.805492 12.744613 -16.804033 -14.582111 -25.313181 -1.543120 -28.180671 -24.602093 3.316903 48.464847 -61.158032 -72.103282 25.352990 5.378709 -34.605355 12.943734 15.376096 -0.328048 50.306009 -12.528990 19.927673 -10.054470 67.686760 3.370290 9.545937 0.465908 5.719185 
0.239406 0.750795 0.878881 63.905079 3.473005 83.708341 4.041925 -1.529354 -6.724545 -11.431885 4.197918 88.566415 -3.206640 7.477807 -18.113535 0.000000 -0.000000 0.000000 5.081371 10.671421 -40.500156 -4.787931 -11.405743 61.202127 -5.208938 -17.697798 -17.359347 0.000000 -0.000000 0.000000 -1.571497 -7.450010 45.557888 0.846559 -5.224408 6.287405 1.950843 -4.187657 3.368824 -9.097640 1.245540 8.581394 11.428310 12.819969 -17.906339 -13.557714 -26.156124 -2.117051 -27.828330 -24.411377 2.942320 49.600429 -61.569201 -72.909312 25.107381 5.642723 -34.874154 12.079192 16.372811 -0.564706 50.448940 -12.280409 19.446719 -10.678989 68.398403 3.247955 9.699093 0.297843 4.972582 
0.255430 0.738628 0.874237 62.443611 2.806973 81.439119 5.437493 -2.790296 -16.787185 -9.969888 9.381876 100.371496 -3.172642 5.874727 -20.235747 0.000000 -0.000000 0.000000 6.468444 10.666366 -37.443512 -5.198118 -10.144236 62.979955 -5.594763 -18.333997 -19.571817 0.000000 -0.000000 0.000000 -2.143968 -4.974262 48.079056 1.016855 -5.866461 6.028240 2.117826 -3.708108 3.504416 -9.539778 1.042773 9.678636 12.180641 12.847114 -18.602172 -12.567868 -26.753617 -2.456643 -27.162731 -24.026896 2.263315 50.307839 -62.033776 -73.424230 25.072438 5.925528 -35.310094 11.350338 16.986964 -0.725810 50.830646 -11.875395 18.901353 -11.965832 68.930745 2.534075 9.672517 0.152687 4.183413 
0.271965 0.726495 0.869925 61.289501 1.809552 79.191580 7.245535 -3.697065 -27.372143 -8.332265 13.060574 109.167930 -2.599166 4.625908 -21.723761 0.000000 -0.000000 0.000000 7.516986 9.970639 -34.322694 -5.205929 -8.509883 64.734493 -6.004426 -19.079693 -21.781368 0.000000 -0.000000 0.000000 -2.750049 -2.587616 50.048094 1.110835 -6.828349 5.913869 2.199949 -3.454932 3.568728 -10.034042 0.930791 10.628621 12.865884 13.032471 -18.860855 -12.144106 -27.240628 -2.424452 -26.213734 -23.417271 1.291072 50.167709 -62.240131 -73.298966 25.217094 6.436204 -35.782874 10.913140 17.462781 -0.615105 51.227467 -11.558595 18.280703 -12.977117 69.145639 2.012860 9.664939 0.039581 3.712535 
0.290427 0.714230 0.867465 60.317118 0.685187 76.719261 9.051067 -4.032950 -36.720104 -6.865857 14.946469 113.415099 -1.701105 4.076726 -23.020473 0.000000 -0.000000 0.000000 8.306024 8.641331 -30.514520 -5.051790 -6.681169 66.149722 -6.072996 -19.439814 -24.168156 0.000000 -0.000000 0.000000 -3.162327 -0.514441 51.631877 0.974274 -7.791364 5.967679 2.211059 -3.299363 3.640121 -10.502419 0.885175 11.283424 13.432501 13.173077 -18.456567 -12.272026 -27.667498 -2.283442 -25.566157 -22.824673 0.348940 48.852100 -62.145374 -72.091510 25.419604 6.978514 -36.089519 10.724461 17.793899 -0.409176 51.544220 -11.579810 17.642502 -12.624102 68.940353 2.575643 9.548785 0.059429 3.667464 
0.310236 0.701914 0.867817 59.627752 -0.266000 74.498639 10.539574 -3.872776 -44.168057 -5.957857 15.508708 112.340532 -0.635092 4.589241 -23.872656 0.000000 -0.000000 0.000000 8.722092 6.917849 -26.421242 -4.670757 -5.043551 66.821551 -5.795444 -19.429789 -26.516737 0.000000 -0.000000 0.000000 -3.283099 0.998574 52.653117 0.728248 -8.586338 5.932561 2.236545 -3.159951 3.770228 -10.972025 0.835414 11.618906 13.846568 13.438969 -17.682387 -12.781073 -27.853530 -2.155600 -25.653055 -22.338231 -0.183800 47.019119 -62.036045 -70.309069 25.633840 7.509143 -36.373758 10.629222 17.910273 -0.092560 51.804384 -11.859473 17.012266 -10.736592 68.361313 4.392598 9.411207 0.181299 4.004010 
0.330193 0.689852 0.871246 59.274392 -0.969071 72.909306 11.259868 -3.411490 -49.160287 -6.265632 15.412679 105.892357 0.186140 5.428674 -23.847316 0.000000 -0.000000 0.000000 8.704786 5.080912 -22.560589 -4.124313 -3.802373 66.719704 -5.319746 -19.104523 -28.567166 0.000000 -0.000000 0.000000 -3.230647 2.040720 53.057681 0.549940 -9.258236 5.705837 2.341681 -3.054528 3.918431 -11.343100 0.852314 11.795862 14.127917 13.625422 -16.916005 -13.518522 -27.771113 -1.980426 -26.131925 -21.711110 -0.080244 45.451000 -62.320093 -68.618615 25.701139 7.868149 -36.761795 10.772017 17.845789 0.258384 51.787287 -12.288322 16.540411 -8.028726 67.664764 6.831895 9.455874 0.278598 4.560271 
0.349720 0.678246 0.877133 59.210318 -1.374346 71.956385 11.005793 -2.972636 -51.041450 -7.445956 14.609528 94.798427 0.737756 6.277019 -23.510405 0.000000 -0.000000 0.000000 8.464287 3.409713 -19.140125 -3.617880 -2.967384 65.978860 -4.714424 -18.484792 -30.128721 0.000000 -0.000000 0.000000 -3.099596 2.545942 52.711197 0.376826 -9.778549 5.628892 2.436313 -2.967034 4.025604 -11.448030 0.931080 11.857531 14.271890 13.531273 -16.175578 -14.162464 -27.522526 -1.959713 -26.667292 -20.986063 0.484050 43.758789 -62.822965 -66.810738 25.666432 7.855275 -37.005300 10.971807 17.697109 0.511563 51.714354 -12.654977 16.311790 -5.402117 66.955167 9.050185 9.585107 0.402439 5.175648 
0.368789 0.667136 0.884333 59.325892 -1.426559 71.637236 10.080435 -2.724649 -49.926822 -7.733115 13.216204 80.267654 1.042209 8.108166 -23.142254 0.000000 -0.000000 0.000000 8.314380 2.227646 -16.240662 -3.326125 -2.590185 64.743500 -4.062946 -17.849036 -31.288283 0.000000 -0.000000 0.000000 -2.896116 2.479156 51.525650 0.117683 -10.015012 5.914264 2.478210 -2.892902 4.055776 -11.331582 1.006233 11.949206 14.270912 13.259787 -15.604642 -14.639172 -27.148979 -2.052094 -27.279142 -20.458409 1.205289 42.417284 -63.139638 -65.320527 25.600110 7.620365 -37.057954 11.117661 17.420011 0.662300 51.716804 -12.910248 16.326058 -3.438841 66.437488 10.626436 9.484160 0.692449 5.716115 
0.387724 0.656453 0.891959 59.423277 -1.301965 71.810622 8.655374 -2.551753 -46.154084 -6.552265 12.133074 62.620832 1.670395 10.979710 -22.738164 0.000000 -0.000000 0.000000 8.355036 1.490574 -13.702765 -3.134797 -2.378498 63.040905 -3.459128 -17.555348 -32.190108 0.000000 -0.000000 0.000000 -2.711846 2.059452 49.715957 -0.271180 -9.955480 6.518876 2.494747 -2.840678 3.977584 -11.133294 1.058400 12.127447 14.119077 13.036848 -14.970073 -15.115755 -26.637788 -2.143278 -27.853522 -20.159607 1.911399 41.589903 -63.309471 -64.265268 25.510503 7.240595 -36.938781 11.199220 17.046145 0.785617 51.798209 -13.137607 16.584746 -2.470914 66.236641 11.216131 9.388375 1.048521 6.158404 
0.406972 0.646050 0.899567 59.434710 -1.071592 72.362859 6.759570 -2.603145 -40.032015 -5.929519 10.614409 41.390869 2.268458 13.524935 -22.415391 0.000000 -0.000000 0.000000 8.562811 1.084562 -11.463429 -3.026646 -2.219063 61.032587 -2.850624 -17.480737 -32.898702 0.000000 -0.000000 0.000000 -2.545929 1.416048 47.309207 -0.753481 -9.731699 7.488372 2.456216 -2.774653 3.871455 -10.813919 1.347188 12.474766 13.780935 12.734482 -14.410481 -15.610506 -26.036314 -2.295630 -28.404616 -20.027653 2.727173 41.199221 -63.249648 -63.810892 25.547299 6.756160 -36.682109 11.227661 16.644837 0.837020 51.906809 -13.289100 17.043447 -2.299674 66.117591 11.082758 9.263420 1.409927 6.671812 
0.427312 0.635426 0.906355 59.207167 -0.569201 73.365565 4.841421 -2.778274 -33.014260 -5.192826 7.299558 19.658610 2.081179 15.547483 -21.789963 0.000000 -0.000000 0.000000 9.113325 1.029763 -9.751853 -2.983539 -2.183359 59.162869 -2.291432 -17.482373 -33.482686 0.000000 -0.000000 0.000000 -2.237356 0.517310 44.059876 -1.272132 -9.344555 8.683675 2.330498 -2.673636 3.846682 -10.402909 1.892815 12.850809 13.204589 12.358224 -13.651072 -15.902145 -25.271469 -2.605906 -29.501038 -19.942960 3.881933 41.168732 -62.903112 -63.602588 25.643829 6.549835 -36.432722 11.103351 16.156235 0.898027 51.973297 -13.366010 17.475475 -1.778936 65.893427 11.449767 8.905951 1.878005 6.979560 
0.448464 0.624901 0.910927 58.701741 0.235535 74.796566 3.618176 -2.204663 -28.475004 -3.409196 4.616646 5.963974 1.515637 16.180112 -21.008391 0.000000 -0.000000 0.000000 9.917584 1.207162 -8.569491 -2.910676 -2.384197 57.570125 -1.986863 -17.492423 -34.089245 0.000000 -0.000000 0.000000 -1.731549 -0.430532 40.521476 -1.593667 -8.906787 9.462487 2.155701 -2.559215 3.904003 -10.122747 2.341936 13.126937 12.635101 12.187742 -12.670527 -16.032630 -24.372134 -2.835025 -30.949236 -19.710184 5.080708 41.196493 -62.811294 -63.236116 25.622856 6.601291 -36.234471 10.951881 15.459901 1.086186 51.719324 -13.529085 17.639274 -0.114959 65.882753 12.971182 8.422506 2.361849 6.927668 
